<svg xmlns="http://www.w3.org/2000/svg" viewBox="0 0 100 100">
  <!-- Top half (red) -->
  <path d="M 50 0 A 50 50 0 0 1 100 50 L 65 50 A 15 15 0 0 0 35 50 L 0 50 A 50 50 0 0 1 50 0 Z" fill="#EE1515"/>
  <!-- Bottom half (white) -->
  <path d="M 50 100 A 50 50 0 0 1 0 50 L 35 50 A 15 15 0 0 0 65 50 L 100 50 A 50 50 0 0 1 50 100 Z" fill="#FFFFFF"/>
  <!-- Middle line -->
  <rect x="0" y="47" width="100" height="6" fill="#222224"/>
  <!-- Outer ring -->
  <circle cx="50" cy="50" r="50" fill="none" stroke="#222224" stroke-width="4"/>
  <!-- Center button outer -->
  <circle cx="50" cy="50" r="15" fill="#FFFFFF" stroke="#222224" stroke-width="4"/>
  <!-- Center button inner -->
  <circle cx="50" cy="50" r="8" fill="#FFFFFF" stroke="#222224" stroke-width="3"/>
</svg>
